<?xml version="1.0" encoding="iso-8859-1"?>
<!-- Generator: Adobe Illustrator 19.0.0, SVG Export Plug-In . SVG Version: 6.00 Build 0)  -->
<svg version="1.1" id="Layer_1" xmlns="http://www.w3.org/2000/svg" xmlns:xlink="http://www.w3.org/1999/xlink" x="0px" y="0px"
	 viewBox="0 0 512 512" style="enable-background:new 0 0 512 512;" xml:space="preserve">
<g>
	<g>
		<path d="M480.906,103.2c-5.533,0-10.019,4.481-10.019,10.019V450.72c0,16.555-12.475,30.705-29.088,30.705H51.205
			c-16.614,0-31.167-14.189-31.167-30.803V60.023c0-16.613,14.549-29.448,31.157-29.448h390.716c5.533,0,9.965-4.481,9.965-10.019
			s-4.545-10.019-10.078-10.019H51.195C23.536,10.537,0,32.363,0,60.023v390.599c0,27.66,23.54,50.841,51.205,50.841h390.594
			c27.66,0,49.126-23.132,49.126-50.743V113.219C490.925,107.681,486.439,103.2,480.906,103.2z"/>
	</g>
</g>
<g>
	<g>
		<path d="M509.065,32.833c-3.914-3.914-10.254-3.914-14.167,0L231.168,296.562l-113.153-103.73
			c-4.08-3.738-10.42-3.464-14.158,0.616c-3.737,4.08-3.464,10.42,0.616,14.157l120.227,110.208
			c1.918,1.761,4.344,2.632,6.771,2.632c2.568,0,5.132-0.978,7.084-2.935L509.065,47C512.978,43.087,512.978,36.747,509.065,32.833z
			"/>
	</g>
</g>
<g>
</g>
<g>
</g>
<g>
</g>
<g>
</g>
<g>
</g>
<g>
</g>
<g>
</g>
<g>
</g>
<g>
</g>
<g>
</g>
<g>
</g>
<g>
</g>
<g>
</g>
<g>
</g>
<g>
</g>
</svg>
