<?xml version="1.0" encoding="iso-8859-1"?>
<!-- Generator: Adobe Illustrator 19.0.0, SVG Export Plug-In . SVG Version: 6.00 Build 0)  -->
<svg version="1.1" id="Layer_1" xmlns="http://www.w3.org/2000/svg" xmlns:xlink="http://www.w3.org/1999/xlink" x="0px" y="0px"
	 viewBox="0 0 512 512" style="enable-background:new 0 0 512 512;" xml:space="preserve">
<g>
	<g>
		<g>
			<path d="M448,256c-11.782,0-21.333,9.551-21.333,21.333V448h-384V64h384c0,11.782,9.551,21.333,21.333,21.333
				c11.782,0,21.333-9.551,21.333-21.333V42.667c0-11.782-9.551-21.333-21.333-21.333H21.333C9.551,21.333,0,30.885,0,42.667
				v426.667c0,11.782,9.551,21.333,21.333,21.333H448c11.782,0,21.333-9.551,21.333-21.333v-192
				C469.333,265.551,459.782,256,448,256z"/>
			<path d="M505.752,91.582c-8.331-8.331-21.839-8.331-30.17,0l-236.25,236.25l-71.476-125.083
				c-5.846-10.23-18.877-13.784-29.107-7.938c-10.23,5.846-13.784,18.877-7.938,29.107l85.333,149.333
				c6.979,12.213,23.661,14.447,33.607,4.501l256-256C514.083,113.42,514.083,99.913,505.752,91.582z"/>
		</g>
	</g>
</g>
<g>
</g>
<g>
</g>
<g>
</g>
<g>
</g>
<g>
</g>
<g>
</g>
<g>
</g>
<g>
</g>
<g>
</g>
<g>
</g>
<g>
</g>
<g>
</g>
<g>
</g>
<g>
</g>
<g>
</g>
</svg>
